<mxfile host="app.diagrams.net" modified="2020-12-09T05:41:58.384Z" agent="5.0 (Windows NT 10.0; Win64; x64) AppleWebKit/537.36 (KHTML, like Gecko) Chrome/88.0.4324.27 Safari/537.36" etag="YxPnZZeDQZ9kaa7Xj4Li" version="13.11.0" type="github">
  <diagram id="DS9h03Ki_lvy3NbimH1d" name="Underlay &lt;-&gt; Overlay">
    <mxGraphModel dx="1422" dy="762" grid="1" gridSize="10" guides="1" tooltips="1" connect="1" arrows="1" fold="1" page="1" pageScale="1" pageWidth="1700" pageHeight="1100" math="0" shadow="0">
      <root>
        <mxCell id="eXOwNscXQuwSidRjr7bC-0" />
        <mxCell id="eXOwNscXQuwSidRjr7bC-1" parent="eXOwNscXQuwSidRjr7bC-0" />
        <mxCell id="eXOwNscXQuwSidRjr7bC-11" value="" style="group;html=1;" parent="eXOwNscXQuwSidRjr7bC-1" vertex="1">
          <mxGeometry x="1044" y="77" width="384" height="84" as="geometry" />
        </mxCell>
        <mxCell id="eXOwNscXQuwSidRjr7bC-12" value="" style="shape=stencil(nZBRDoQgDERP03+WHsHFe5iISyOCQdT19kIaIxq//Jtp3zTpAFaTaUYNUkwx+F6v1EYD+AUpyRkdKCYFqACrzgf9C352LfuxyWRWg1/yhT/nRE5IsZWuZtCSK8CPeI0e/hF+jV7AJM4PO7KWCyr390bSiNtEtQM=);whiteSpace=wrap;overflow=block;html=1;fontSize=11;strokeOpacity=0;fillOpacity=0;fillColor=#000000;whiteSpace=wrap;fontSize=11;spacing=0;" parent="eXOwNscXQuwSidRjr7bC-11" vertex="1">
          <mxGeometry width="384" height="84" relative="1" as="geometry" />
        </mxCell>
        <mxCell id="eXOwNscXQuwSidRjr7bC-13" value="&lt;div style=&quot;display: flex ; justify-content: flex-start ; text-align: left ; align-items: baseline ; font-size: 0 ; line-height: 1&quot;&gt;&lt;span style=&quot;font-size: 11px&quot;&gt;&lt;span style=&quot;font-size: 16px ; color: #000000 ; font-weight: bold ; font-family: &amp;#34;carlito&amp;#34;&quot;&gt;ItLeaf-4&lt;br&gt;&lt;/span&gt;&lt;/span&gt;&lt;/div&gt;&lt;div style=&quot;display: flex ; justify-content: flex-start ; text-align: left ; align-items: baseline ; font-size: 0 ; line-height: 1&quot;&gt;&lt;span style=&quot;font-size: 11px&quot;&gt;&lt;span style=&quot;font-size: 16px ; color: #000000 ; font-weight: bold ; font-family: &amp;#34;carlito&amp;#34;&quot;&gt;N9K-C93180YC-EX&lt;br&gt;&lt;/span&gt;&lt;/span&gt;&lt;/div&gt;&lt;div style=&quot;display: flex ; justify-content: flex-start ; text-align: left ; align-items: baseline ; font-size: 0 ; line-height: 1&quot;&gt;&lt;span style=&quot;font-size: 11px&quot;&gt;&lt;span style=&quot;font-size: 16px ; color: #000000 ; font-weight: bold ; font-family: &amp;#34;carlito&amp;#34;&quot;&gt;AS (ENF)&lt;br&gt;&lt;/span&gt;&lt;/span&gt;&lt;/div&gt;&lt;div style=&quot;display: flex ; justify-content: center ; text-align: center ; align-items: baseline ; font-size: 0 ; line-height: 1&quot;&gt;&lt;span style=&quot;font-size: 11px&quot;&gt;&lt;span style=&quot;font-size: 16px ; color: #000000 ; font-family: &amp;#34;carlito&amp;#34;&quot;&gt;VLAN 1344:&amp;nbsp;&lt;/span&gt;&lt;/span&gt;&lt;/div&gt;" style="strokeColor=none;fillColor=none;overflow=visible;whiteSpace=wrap;html=1;fontSize=11;whiteSpace=wrap;fontSize=11;spacing=0;strokeOpacity=0;fillOpacity=0;whiteSpace=wrap;fontSize=11;" parent="eXOwNscXQuwSidRjr7bC-11" vertex="1">
          <mxGeometry x="0.014" y="0.064" width="373.248" height="73.332" relative="1" as="geometry" />
        </mxCell>
        <mxCell id="eXOwNscXQuwSidRjr7bC-14" value="" style="group;html=1;" parent="eXOwNscXQuwSidRjr7bC-1" vertex="1">
          <mxGeometry x="72" y="348" width="300" height="186" as="geometry" />
        </mxCell>
        <mxCell id="eXOwNscXQuwSidRjr7bC-15" value="" style="shape=stencil(nZBRDoQgDERP03+WHsHFe5iISyOCQdT19kIaIxq//Jtp3zTpAFaTaUYNUkwx+F6v1EYD+AUpyRkdKCYFqACrzgf9C352LfuxyWRWg1/yhT/nRE5IsZWuZtCSK8CPeI0e/hF+jV7AJM4PO7KWCyr390bSiNtEtQM=);whiteSpace=wrap;fontSize=11;strokeOpacity=0;fillOpacity=0;fillColor=#000000;whiteSpace=wrap;spacing=0;" parent="eXOwNscXQuwSidRjr7bC-14" vertex="1">
          <mxGeometry width="300" height="186" relative="1" as="geometry" />
        </mxCell>
        <mxCell id="eXOwNscXQuwSidRjr7bC-16" value="&lt;div style=&quot;display: flex ; justify-content: flex-end ; text-align: right ; align-items: baseline ; font-size: 0 ; line-height: 1&quot;&gt;&lt;span style=&quot;font-size: 11px&quot;&gt;&lt;span style=&quot;font-size: 16px ; color: #000000 ; font-weight: bold ; font-family: &amp;#34;carlito&amp;#34;&quot;&gt;-dev-etc-t0-1&lt;br&gt;&lt;/span&gt;&lt;/span&gt;&lt;/div&gt;&lt;div style=&quot;display: flex ; justify-content: flex-end ; text-align: right ; align-items: baseline ; font-size: 0 ; line-height: 1&quot;&gt;&lt;span style=&quot;font-size: 11px&quot;&gt;&lt;span style=&quot;font-size: 16px ; color: #000000 ; font-weight: bold ; font-family: &amp;#34;carlito&amp;#34;&quot;&gt;NSX-T 2.5 Large ETN Cluster (x4)&lt;br&gt;&lt;/span&gt;&lt;/span&gt;&lt;/div&gt;&lt;div style=&quot;display: flex ; justify-content: flex-end ; text-align: right ; align-items: baseline ; font-size: 0 ; line-height: 1&quot;&gt;&lt;span style=&quot;font-size: 11px&quot;&gt;&lt;span style=&quot;font-size: 16px ; color: #000000 ; font-weight: bold ; font-family: &amp;#34;carlito&amp;#34;&quot;&gt;AS (ENF)&lt;br&gt;&lt;/span&gt;&lt;/span&gt;&lt;/div&gt;&lt;div style=&quot;display: flex ; justify-content: flex-start ; text-align: left ; align-items: baseline ; font-size: 0 ; line-height: 1&quot;&gt;&lt;span style=&quot;font-size: 11px&quot;&gt;&lt;span style=&quot;font-size: 16px ; color: #000000 ; font-family: &amp;#34;carlito&amp;#34;&quot;&gt;N-VDS in VDS&lt;br&gt;&lt;/span&gt;&lt;/span&gt;&lt;/div&gt;&lt;div style=&quot;display: flex ; justify-content: flex-start ; text-align: left ; align-items: baseline ; font-size: 0 ; line-height: 1&quot;&gt;&lt;span style=&quot;font-size: 11px&quot;&gt;&lt;span style=&quot;font-size: 16px ; color: #000000 ; font-family: &amp;#34;carlito&amp;#34;&quot;&gt;N-VDS VLAN 1280: .248.1/31&lt;br&gt;&lt;/span&gt;&lt;/span&gt;&lt;/div&gt;&lt;div style=&quot;display: flex ; justify-content: flex-start ; text-align: left ; align-items: baseline ; font-size: 0 ; line-height: 1&quot;&gt;&lt;span style=&quot;font-size: 11px&quot;&gt;&lt;span style=&quot;font-size: 16px ; color: #000000 ; font-family: &amp;#34;carlito&amp;#34;&quot;&gt;N-VDS VLAN 1281: .248.3/31&lt;br&gt;&lt;/span&gt;&lt;/span&gt;&lt;/div&gt;&lt;div style=&quot;display: flex ; justify-content: flex-start ; text-align: left ; align-items: baseline ; font-size: 0 ; line-height: 1&quot;&gt;&lt;span style=&quot;font-size: 11px&quot;&gt;&lt;span style=&quot;font-size: 16px ; color: #000000 ; font-family: &amp;#34;carlito&amp;#34;&quot;&gt;N-VDS VLAN 1344: .248.129/31&lt;br&gt;&lt;/span&gt;&lt;/span&gt;&lt;/div&gt;&lt;div style=&quot;display: flex ; justify-content: flex-start ; text-align: left ; align-items: baseline ; font-size: 0 ; line-height: 1&quot;&gt;&lt;span style=&quot;font-size: 11px&quot;&gt;&lt;span style=&quot;font-size: 16px ; color: #000000 ; font-family: &amp;#34;carlito&amp;#34;&quot;&gt;N-VDS VLAN 1345: .248.131/31&lt;br&gt;&lt;/span&gt;&lt;/span&gt;&lt;/div&gt;&lt;div style=&quot;display: flex ; justify-content: flex-start ; text-align: left ; align-items: baseline ; font-size: 0 ; line-height: 1&quot;&gt;&lt;span style=&quot;font-size: 11px&quot;&gt;&lt;span style=&quot;font-size: 16px ; color: #000000 ; font-family: &amp;#34;carlito&amp;#34;&quot;&gt;Intra-T0: .220.0/24&lt;br&gt;&lt;/span&gt;&lt;/span&gt;&lt;/div&gt;&lt;div style=&quot;display: flex ; justify-content: flex-start ; text-align: left ; align-items: baseline ; font-size: 0 ; line-height: 1&quot;&gt;&lt;span style=&quot;font-size: 11px&quot;&gt;&lt;span style=&quot;font-size: 16px ; color: #000000 ; font-family: &amp;#34;carlito&amp;#34;&quot;&gt;Inter-T0: .221.0/24&lt;/span&gt;&lt;/span&gt;&lt;/div&gt;" style="strokeColor=none;fillColor=none;overflow=visible;whiteSpace=wrap;html=1;fontSize=11;whiteSpace=wrap;fontSize=11;spacing=0;strokeOpacity=0;fillOpacity=0;whiteSpace=wrap;fontSize=11;" parent="eXOwNscXQuwSidRjr7bC-14" vertex="1">
          <mxGeometry x="0.018" y="0.029" width="289.2" height="175.398" relative="1" as="geometry" />
        </mxCell>
        <mxCell id="eXOwNscXQuwSidRjr7bC-20" value="" style="group;html=1;" parent="eXOwNscXQuwSidRjr7bC-1" vertex="1">
          <mxGeometry x="50" y="552" width="284" height="363" as="geometry" />
        </mxCell>
        <mxCell id="eXOwNscXQuwSidRjr7bC-21" value="" style="shape=stencil(nZBLDoAgDERP0z3SIyjew0SURgSD+Lu9kMZoXLhwN9O+tukAlrNpJg1SzDH4QW/URgNYgZTkjA4UkwJUgGXng+6DX1zLfmoymdXo17xh5zmRJ6Q42BWCfc2oJfdAr+Yv+AP9Cb7OJ3H/2JG1HNGz/84klThPVCc=);whiteSpace=wrap;fontSize=11;strokeOpacity=0;image=/imageBlocks/image/2f7be901-1ffc-4921-b633-f5958eaaa001;whiteSpace=wrap;spacing=0;verticalAlign=top;" parent="eXOwNscXQuwSidRjr7bC-20" vertex="1">
          <mxGeometry width="284" height="363" relative="1" as="geometry" />
        </mxCell>
        <UserObject label="" lucidchartObjectId="Xud6HUDJ65OkI" id="eXOwNscXQuwSidRjr7bC-23">
          <mxCell style="html=1;jettySize=18;whiteSpace=wrap;overflow=block;fontSize=11;strokeWidth=2;rounded=0;startArrow=none;;endArrow=none;;exitX=0.5;exitY=0.086;exitPerimeter=0;entryX=0;entryY=1;entryPerimeter=0;" parent="eXOwNscXQuwSidRjr7bC-1" edge="1">
            <mxGeometry width="100" height="100" relative="1" as="geometry">
              <Array as="points" />
              <mxPoint x="432" y="358.31999999999994" as="sourcePoint" />
              <mxPoint x="684" y="178" as="targetPoint" />
            </mxGeometry>
          </mxCell>
        </UserObject>
        <mxCell id="eXOwNscXQuwSidRjr7bC-24" value="VLAN 1280, 1281, 200" style="text;html=1;resizable=0;labelBackgroundColor=#ffffff;align=center;verticalAlign=middle;fontColor=#000000;;fontSize=16.002;" parent="eXOwNscXQuwSidRjr7bC-23" vertex="1">
          <mxGeometry x="0.2270226465775642" relative="1" as="geometry" />
        </mxCell>
        <UserObject label="" lucidchartObjectId="mc33Pa7XUGRyQ" id="eXOwNscXQuwSidRjr7bC-25">
          <mxCell style="html=1;jettySize=18;whiteSpace=wrap;fontSize=11;strokeWidth=2;rounded=0;startArrow=none;;endArrow=none;;exitX=0.5;exitY=0.086;exitPerimeter=0;entryX=0;entryY=1;entryPerimeter=0;" parent="eXOwNscXQuwSidRjr7bC-1" edge="1">
            <mxGeometry width="100" height="100" relative="1" as="geometry">
              <Array as="points" />
              <mxPoint x="432" y="358.31999999999994" as="sourcePoint" />
              <mxPoint x="900" y="178" as="targetPoint" />
            </mxGeometry>
          </mxCell>
        </UserObject>
        <mxCell id="eXOwNscXQuwSidRjr7bC-26" value="VLAN 1344,1345, 200" style="text;html=1;resizable=0;labelBackgroundColor=#ffffff;align=center;verticalAlign=middle;fontColor=#000000;;fontSize=16.002;" parent="eXOwNscXQuwSidRjr7bC-25" vertex="1">
          <mxGeometry relative="1" as="geometry" />
        </mxCell>
        <UserObject label="" lucidchartObjectId="4FXtPiewKhvnq" id="eXOwNscXQuwSidRjr7bC-30">
          <mxCell style="html=1;jettySize=18;whiteSpace=wrap;fontSize=11;strokeWidth=2;rounded=0;startArrow=none;;endArrow=none;;exitX=1;exitY=1;exitPerimeter=0;entryX=0.5;entryY=0.078;entryPerimeter=0;" parent="eXOwNscXQuwSidRjr7bC-1" edge="1">
            <mxGeometry width="100" height="100" relative="1" as="geometry">
              <Array as="points" />
              <mxPoint x="804" y="178" as="sourcePoint" />
              <mxPoint x="1260" y="357.3599999999999" as="targetPoint" />
            </mxGeometry>
          </mxCell>
        </UserObject>
        <mxCell id="eXOwNscXQuwSidRjr7bC-31" value="VLAN 1282, 1283, 200" style="text;html=1;resizable=0;labelBackgroundColor=#ffffff;align=center;verticalAlign=middle;fontColor=#000000;;fontSize=16.002;" parent="eXOwNscXQuwSidRjr7bC-30" vertex="1">
          <mxGeometry x="-0.15277566698926126" relative="1" as="geometry" />
        </mxCell>
        <UserObject label="" lucidchartObjectId="LTlvUpyMnkc84" id="eXOwNscXQuwSidRjr7bC-32">
          <mxCell style="html=1;jettySize=18;whiteSpace=wrap;fontSize=11;strokeWidth=2;rounded=0;startArrow=none;;endArrow=none;;exitX=1;exitY=1;exitPerimeter=0;entryX=0.5;entryY=0.078;entryPerimeter=0;" parent="eXOwNscXQuwSidRjr7bC-1" edge="1">
            <mxGeometry width="100" height="100" relative="1" as="geometry">
              <Array as="points" />
              <mxPoint x="1020" y="178" as="sourcePoint" />
              <mxPoint x="1260" y="357.3599999999999" as="targetPoint" />
            </mxGeometry>
          </mxCell>
        </UserObject>
        <mxCell id="eXOwNscXQuwSidRjr7bC-33" value="VLAN 1346, 1347, 200" style="text;html=1;resizable=0;labelBackgroundColor=#ffffff;align=center;verticalAlign=middle;fontColor=#000000;;fontSize=16.002;" parent="eXOwNscXQuwSidRjr7bC-32" vertex="1">
          <mxGeometry relative="1" as="geometry" />
        </mxCell>
        <mxCell id="eXOwNscXQuwSidRjr7bC-37" value="" style="group;html=1;" parent="eXOwNscXQuwSidRjr7bC-1" vertex="1">
          <mxGeometry x="390" y="584" width="78" height="78" as="geometry" />
        </mxCell>
        <mxCell id="eXOwNscXQuwSidRjr7bC-38" value="" style="shape=stencil(pZTdcoMgEIWfhltGdsGf6zR9j0xjKlOrGWLa9O2rw7IiNXbS3uHhg7PLritwd2kO51pAdhlc/1Z/2uPQCHwSALZrameHcSVwL3B36l396vprd/Tf58NETqv3/mO64ebPaSPNdAiyLy+UFQnPHm9tF+OlhP/gKpN6A0+D+QWvaDfgKIuYfrk6n6qi7VyWxAclCDfwAswRkFIRgBRRwRmlyh3Xig8o9oClq2YEOFK19A2psS0/7erTYMGp/g03m2U1Ml/gJnvgbqO37v6JKxLWcX6XdTqthk6rkaMMJYa0YCQUmtvkbheUsO0bNVboC7W0jbozBJJzo4Sizx2PzOADP1T6u46LeTKcbNv6wRLvp5NklPwUwv03);whiteSpace=wrap;fontSize=11;strokeColor=#50632a;fillOpacity=0;fillColor=#000000;whiteSpace=wrap;spacing=0;" parent="eXOwNscXQuwSidRjr7bC-37" vertex="1">
          <mxGeometry width="78" height="78" relative="1" as="geometry" />
        </mxCell>
        <mxCell id="eXOwNscXQuwSidRjr7bC-39" value="" style="shape=stencil(nZTdcoMgEIWfhlsGWEG8TpP3yCSmMrWaMaY1bx8sPwKNpOkdHj84cnZdBJtLsz/XiJHLOPQf9bc6jg2CN8SY6pp6UKNeIdgi2Jz6oX4f+mt3NM/n/UzOq8/+az5hMvsEw2zexMjNCJxi+SPsDN6qLosXmK/j+m0R4+SFswueO/s3Lq3wEK8Ehix+uA4mGGo3cBsEuVkFBKZGmZhliGeswrj7qgmMIplnrELLvHPpMvXOVWwrwF/dKuA8nCsnWMSugMtsoXiUDiW2co9x6u/0L1xWT7qGv4IvV01KvZJvEB/1O1gccVADV2uKntTVK2sdRdKO0i4y9g26bil2FTsHrQxJwH/8aRNcL5b5cFJta8ZL+D6dJ1oyswi2dw==);whiteSpace=wrap;fontSize=11;strokeColor=#50632a;fillOpacity=0;fillColor=#000000;whiteSpace=wrap;spacing=0;" parent="eXOwNscXQuwSidRjr7bC-37" vertex="1">
          <mxGeometry width="78" height="78" relative="1" as="geometry" />
        </mxCell>
        <mxCell id="eXOwNscXQuwSidRjr7bC-40" value="" style="shape=stencil(pVbLcsIwDPyaXD2OnZfPFP6DKaFkSgkTQhv+vkltybacF/QWxNoraVdKIrm5nfbXMhL81jb1Z/lTHdpTJN8iIarLqWyqtn+K5DaSm2PdlB9Nfb8c9O/rfkAOT1/193BDp88liiXDIcEfOiBZ/vd7p9Hn6uKiU5Z66Jib4+Pwgon/wAtl6NYlswCnlaqMSRf+fm90Z2LTiYwV5kCMJ0yCndARYXMwERUbhDQl51iUiRTC3DvBq/CACeQJJAK0CUJMIJNM+bygI9KmsU/rd0fmWOxr8GRBqsyH8yfuRqFXwsFG43DsyziaqpFQNXpbgMSCCmZdAT6ZdAFGJngdZ4EvfFbHnhBBm8jA8sQVu7FdkHKiEkHTFHvT0d5Qo+ZJMB9+ijgMqxujOB1Lp91Akga9sapJMv7IPG+cTJDt9Cx81sX9/PjbaW5Cgrvnpy+Ez86205hxeKBIShVx1pEIVLPWIHYNvbC0Kh17QS5kNh2PCiyPDKfje+qNKa2eefFg+16Ez780g2QW4AszTjeCh/UsGSwsgQ6OXThKAXcJigcdACA98gk67nPlOdTVBfcDY8x5RIQnq4fPUloOYLU3Ugp0uc1LUsiqOi086HMXcDz8Vk/V6RH2D/bj8Fidz/rb0v2ffkz2If0hKre/);whiteSpace=wrap;fontSize=11;strokeColor=#50632a;fillOpacity=0;fillColor=#000000;whiteSpace=wrap;spacing=0;" parent="eXOwNscXQuwSidRjr7bC-37" vertex="1">
          <mxGeometry width="78" height="78" relative="1" as="geometry" />
        </mxCell>
        <mxCell id="eXOwNscXQuwSidRjr7bC-41" value="" style="group;html=1;" parent="eXOwNscXQuwSidRjr7bC-1" vertex="1">
          <mxGeometry x="390" y="669" width="78" height="78" as="geometry" />
        </mxCell>
        <mxCell id="eXOwNscXQuwSidRjr7bC-42" value="" style="shape=stencil(pZTdcoMgEIWfhltGdsGf6zR9j0xjKlOrGWLa9O2rw7IiNXbS3uHhg7PLritwd2kO51pAdhlc/1Z/2uPQCHwSALZrameHcSVwL3B36l396vprd/Tf58NETqv3/mO64ebPaSPNdAiyLy+UFQnPHm9tF+OlhP/gKpN6A0+D+QWvaDfgKIuYfrk6n6qi7VyWxAclCDfwAswRkFIRgBRRwRmlyh3Xig8o9oClq2YEOFK19A2psS0/7erTYMGp/g03m2U1Ml/gJnvgbqO37v6JKxLWcX6XdTqthk6rkaMMJYa0YCQUmtvkbheUsO0bNVboC7W0jbozBJJzo4Sizx2PzOADP1T6u46LeTKcbNv6wRLvp5NklPwUwv03);whiteSpace=wrap;fontSize=11;strokeColor=#50632a;fillOpacity=0;fillColor=#000000;whiteSpace=wrap;spacing=0;" parent="eXOwNscXQuwSidRjr7bC-41" vertex="1">
          <mxGeometry width="78" height="78" relative="1" as="geometry" />
        </mxCell>
        <mxCell id="eXOwNscXQuwSidRjr7bC-43" value="" style="shape=stencil(nZTdcoMgEIWfhlsGWEG8TpP3yCSmMrWaMaY1bx8sPwKNpOkdHj84cnZdBJtLsz/XiJHLOPQf9bc6jg2CN8SY6pp6UKNeIdgi2Jz6oX4f+mt3NM/n/UzOq8/+az5hMvsEw2zexMjNCJxi+SPsDN6qLosXmK/j+m0R4+SFswueO/s3Lq3wEK8Ehix+uA4mGGo3cBsEuVkFBKZGmZhliGeswrj7qgmMIplnrELLvHPpMvXOVWwrwF/dKuA8nCsnWMSugMtsoXiUDiW2co9x6u/0L1xWT7qGv4IvV01KvZJvEB/1O1gccVADV2uKntTVK2sdRdKO0i4y9g26bil2FTsHrQxJwH/8aRNcL5b5cFJta8ZL+D6dJ1oyswi2dw==);whiteSpace=wrap;fontSize=11;strokeColor=#50632a;fillOpacity=0;fillColor=#000000;whiteSpace=wrap;spacing=0;" parent="eXOwNscXQuwSidRjr7bC-41" vertex="1">
          <mxGeometry width="78" height="78" relative="1" as="geometry" />
        </mxCell>
        <mxCell id="eXOwNscXQuwSidRjr7bC-44" value="" style="shape=stencil(pVbLcsIwDPyaXD2OnZfPFP6DKaFkSgkTQhv+vkltybacF/QWxNoraVdKIrm5nfbXMhL81jb1Z/lTHdpTJN8iIarLqWyqtn+K5DaSm2PdlB9Nfb8c9O/rfkAOT1/193BDp88liiXDIcEfOiBZ/vd7p9Hn6uKiU5Z66Jib4+Pwgon/wAtl6NYlswCnlaqMSRf+fm90Z2LTiYwV5kCMJ0yCndARYXMwERUbhDQl51iUiRTC3DvBq/CACeQJJAK0CUJMIJNM+bygI9KmsU/rd0fmWOxr8GRBqsyH8yfuRqFXwsFG43DsyziaqpFQNXpbgMSCCmZdAT6ZdAFGJngdZ4EvfFbHnhBBm8jA8sQVu7FdkHKiEkHTFHvT0d5Qo+ZJMB9+ijgMqxujOB1Lp91Akga9sapJMv7IPG+cTJDt9Cx81sX9/PjbaW5Cgrvnpy+Ez86205hxeKBIShVx1pEIVLPWIHYNvbC0Kh17QS5kNh2PCiyPDKfje+qNKa2eefFg+16Ez780g2QW4AszTjeCh/UsGSwsgQ6OXThKAXcJigcdACA98gk67nPlOdTVBfcDY8x5RIQnq4fPUloOYLU3Ugp0uc1LUsiqOi086HMXcDz8Vk/V6RH2D/bj8Fidz/rb0v2ffkz2If0hKre/);whiteSpace=wrap;fontSize=11;strokeColor=#50632a;fillOpacity=0;fillColor=#000000;whiteSpace=wrap;spacing=0;" parent="eXOwNscXQuwSidRjr7bC-41" vertex="1">
          <mxGeometry width="78" height="78" relative="1" as="geometry" />
        </mxCell>
        <mxCell id="eXOwNscXQuwSidRjr7bC-45" value="" style="group;html=1;" parent="eXOwNscXQuwSidRjr7bC-1" vertex="1">
          <mxGeometry x="390" y="756" width="78" height="78" as="geometry" />
        </mxCell>
        <mxCell id="eXOwNscXQuwSidRjr7bC-46" value="" style="shape=stencil(pZTdcoMgEIWfhltGdsGf6zR9j0xjKlOrGWLa9O2rw7IiNXbS3uHhg7PLritwd2kO51pAdhlc/1Z/2uPQCHwSALZrameHcSVwL3B36l396vprd/Tf58NETqv3/mO64ebPaSPNdAiyLy+UFQnPHm9tF+OlhP/gKpN6A0+D+QWvaDfgKIuYfrk6n6qi7VyWxAclCDfwAswRkFIRgBRRwRmlyh3Xig8o9oClq2YEOFK19A2psS0/7erTYMGp/g03m2U1Ml/gJnvgbqO37v6JKxLWcX6XdTqthk6rkaMMJYa0YCQUmtvkbheUsO0bNVboC7W0jbozBJJzo4Sizx2PzOADP1T6u46LeTKcbNv6wRLvp5NklPwUwv03);whiteSpace=wrap;fontSize=11;strokeColor=#50632a;fillOpacity=0;fillColor=#000000;whiteSpace=wrap;spacing=0;" parent="eXOwNscXQuwSidRjr7bC-45" vertex="1">
          <mxGeometry width="78" height="78" relative="1" as="geometry" />
        </mxCell>
        <mxCell id="eXOwNscXQuwSidRjr7bC-47" value="" style="shape=stencil(nZTdcoMgEIWfhlsGWEG8TpP3yCSmMrWaMaY1bx8sPwKNpOkdHj84cnZdBJtLsz/XiJHLOPQf9bc6jg2CN8SY6pp6UKNeIdgi2Jz6oX4f+mt3NM/n/UzOq8/+az5hMvsEw2zexMjNCJxi+SPsDN6qLosXmK/j+m0R4+SFswueO/s3Lq3wEK8Ehix+uA4mGGo3cBsEuVkFBKZGmZhliGeswrj7qgmMIplnrELLvHPpMvXOVWwrwF/dKuA8nCsnWMSugMtsoXiUDiW2co9x6u/0L1xWT7qGv4IvV01KvZJvEB/1O1gccVADV2uKntTVK2sdRdKO0i4y9g26bil2FTsHrQxJwH/8aRNcL5b5cFJta8ZL+D6dJ1oyswi2dw==);whiteSpace=wrap;fontSize=11;strokeColor=#50632a;fillOpacity=0;fillColor=#000000;whiteSpace=wrap;spacing=0;" parent="eXOwNscXQuwSidRjr7bC-45" vertex="1">
          <mxGeometry width="78" height="78" relative="1" as="geometry" />
        </mxCell>
        <mxCell id="eXOwNscXQuwSidRjr7bC-48" value="" style="shape=stencil(pVbLcsIwDPyaXD2OnZfPFP6DKaFkSgkTQhv+vkltybacF/QWxNoraVdKIrm5nfbXMhL81jb1Z/lTHdpTJN8iIarLqWyqtn+K5DaSm2PdlB9Nfb8c9O/rfkAOT1/193BDp88liiXDIcEfOiBZ/vd7p9Hn6uKiU5Z66Jib4+Pwgon/wAtl6NYlswCnlaqMSRf+fm90Z2LTiYwV5kCMJ0yCndARYXMwERUbhDQl51iUiRTC3DvBq/CACeQJJAK0CUJMIJNM+bygI9KmsU/rd0fmWOxr8GRBqsyH8yfuRqFXwsFG43DsyziaqpFQNXpbgMSCCmZdAT6ZdAFGJngdZ4EvfFbHnhBBm8jA8sQVu7FdkHKiEkHTFHvT0d5Qo+ZJMB9+ijgMqxujOB1Lp91Akga9sapJMv7IPG+cTJDt9Cx81sX9/PjbaW5Cgrvnpy+Ez86205hxeKBIShVx1pEIVLPWIHYNvbC0Kh17QS5kNh2PCiyPDKfje+qNKa2eefFg+16Ez780g2QW4AszTjeCh/UsGSwsgQ6OXThKAXcJigcdACA98gk67nPlOdTVBfcDY8x5RIQnq4fPUloOYLU3Ugp0uc1LUsiqOi086HMXcDz8Vk/V6RH2D/bj8Fidz/rb0v2ffkz2If0hKre/);whiteSpace=wrap;fontSize=11;strokeColor=#50632a;fillOpacity=0;fillColor=#000000;whiteSpace=wrap;spacing=0;" parent="eXOwNscXQuwSidRjr7bC-45" vertex="1">
          <mxGeometry width="78" height="78" relative="1" as="geometry" />
        </mxCell>
        <mxCell id="eXOwNscXQuwSidRjr7bC-49" value="" style="group;html=1;" parent="eXOwNscXQuwSidRjr7bC-1" vertex="1">
          <mxGeometry x="492" y="588" width="300" height="186" as="geometry" />
        </mxCell>
        <mxCell id="eXOwNscXQuwSidRjr7bC-50" value="" style="shape=stencil(nZBRDoQgDERP03+WHsHFe5iISyOCQdT19kIaIxq//Jtp3zTpAFaTaUYNUkwx+F6v1EYD+AUpyRkdKCYFqACrzgf9C352LfuxyWRWg1/yhT/nRE5IsZWuZtCSK8CPeI0e/hF+jV7AJM4PO7KWCyr390bSiNtEtQM=);whiteSpace=wrap;overflow=block;html=1;fontSize=11;strokeOpacity=0;fillOpacity=0;fillColor=#000000;whiteSpace=wrap;fontSize=11;spacing=0;" parent="eXOwNscXQuwSidRjr7bC-49" vertex="1">
          <mxGeometry width="300" height="186" relative="1" as="geometry" />
        </mxCell>
        <mxCell id="eXOwNscXQuwSidRjr7bC-51" value="&lt;div style=&quot;display: flex ; justify-content: flex-start ; text-align: left ; align-items: baseline ; font-size: 0 ; line-height: 1&quot;&gt;&lt;span style=&quot;font-size: 11px&quot;&gt;&lt;span style=&quot;font-size: 16px ; color: #000000 ; font-weight: bold ; font-family: &amp;#34;carlito&amp;#34;&quot;&gt;dev-etc-t1-1&lt;br&gt;&lt;/span&gt;&lt;/span&gt;&lt;/div&gt;&lt;div style=&quot;display: flex ; justify-content: flex-start ; text-align: left ; align-items: baseline ; font-size: 0 ; line-height: 1&quot;&gt;&lt;span style=&quot;font-size: 11px&quot;&gt;&lt;span style=&quot;font-size: 16px ; color: #000000 ; font-weight: bold ; font-family: &amp;#34;carlito&amp;#34;&quot;&gt;NSX-T 2.5 A/P ETN Cluster (x2)&lt;br&gt;&lt;/span&gt;&lt;/span&gt;&lt;/div&gt;&lt;div style=&quot;display: flex ; justify-content: flex-start ; text-align: left ; align-items: baseline ; font-size: 0 ; line-height: 1&quot;&gt;&lt;span style=&quot;font-size: 11px&quot;&gt;&lt;span style=&quot;font-size: 16px ; color: #000000 ; font-family: &amp;#34;carlito&amp;#34;&quot;&gt;N-VDS only&lt;br&gt;&lt;/span&gt;&lt;/span&gt;&lt;/div&gt;&lt;div style=&quot;display: flex ; justify-content: flex-start ; text-align: left ; align-items: baseline ; font-size: 0 ; line-height: 1&quot;&gt;&lt;span style=&quot;font-size: 11px&quot;&gt;&lt;span style=&quot;font-size: 16px ; color: #000000 ; font-family: &amp;#34;carlito&amp;#34;&quot;&gt;SR DEV:&lt;br&gt;&lt;/span&gt;&lt;/span&gt;&lt;/div&gt;&lt;div style=&quot;display: flex ; justify-content: flex-start ; text-align: left ; align-items: baseline ; font-size: 0 ; line-height: 1&quot;&gt;&lt;span style=&quot;font-size: 11px&quot;&gt;&lt;span style=&quot;font-family: &amp;#34;carlito&amp;#34; ; font-size: 16px&quot;&gt;vRA Networks&lt;/span&gt;&lt;br&gt;&lt;/span&gt;&lt;/div&gt;&lt;div style=&quot;display: flex ; justify-content: flex-start ; text-align: left ; align-items: baseline ; font-size: 0 ; line-height: 1&quot;&gt;&lt;span style=&quot;font-size: 11px&quot;&gt;&lt;span style=&quot;font-size: 16px ; color: #000000 ; font-family: &amp;#34;carlito&amp;#34;&quot;&gt;SR PKS:&lt;br&gt;&lt;/span&gt;&lt;/span&gt;&lt;/div&gt;&lt;div style=&quot;display: flex ; justify-content: flex-start ; text-align: left ; align-items: baseline ; font-size: 0 ; line-height: 1&quot;&gt;&lt;span style=&quot;font-size: 11px&quot;&gt;&lt;span style=&quot;font-size: 16px ; color: #000000 ; font-family: &amp;#34;carlito&amp;#34;&quot;&gt;(dynamically generated networks)&lt;/span&gt;&lt;/span&gt;&lt;/div&gt;" style="strokeColor=none;fillColor=none;overflow=visible;whiteSpace=wrap;html=1;fontSize=11;whiteSpace=wrap;fontSize=11;spacing=0;strokeOpacity=0;fillOpacity=0;whiteSpace=wrap;fontSize=11;" parent="eXOwNscXQuwSidRjr7bC-49" vertex="1">
          <mxGeometry x="0.018" y="0.046" width="289.2" height="172.05" relative="1" as="geometry" />
        </mxCell>
        <mxCell id="eXOwNscXQuwSidRjr7bC-7" value="&lt;div style=&quot;display: flex ; justify-content: flex-end ; text-align: right ; align-items: baseline ; font-size: 0 ; line-height: 1&quot;&gt;&lt;span style=&quot;font-size: 11px&quot;&gt;&lt;span style=&quot;font-size: 16px ; color: #000000 ; font-weight: bold ; font-family: &amp;#34;carlito&amp;#34;&quot;&gt;Zcs&amp;lt;Site&amp;gt;&amp;lt;AZ&amp;gt;Leaf-3&lt;br&gt;&lt;/span&gt;&lt;/span&gt;&lt;/div&gt;&lt;div style=&quot;display: flex ; justify-content: flex-end ; text-align: right ; align-items: baseline ; font-size: 0 ; line-height: 1&quot;&gt;&lt;span style=&quot;font-size: 11px&quot;&gt;&lt;span style=&quot;font-size: 16px ; color: #000000 ; font-weight: bold ; font-family: &amp;#34;carlito&amp;#34;&quot;&gt;N9K-C93180YC-EX&lt;br&gt;&lt;/span&gt;&lt;/span&gt;&lt;/div&gt;&lt;div style=&quot;display: flex ; justify-content: flex-end ; text-align: right ; align-items: baseline ; font-size: 0 ; line-height: 1&quot;&gt;&lt;span style=&quot;font-size: 11px&quot;&gt;&lt;span style=&quot;font-size: 16px ; color: #000000 ; font-weight: bold ; font-family: &amp;#34;carlito&amp;#34;&quot;&gt;AS (ENF)&lt;br&gt;&lt;/span&gt;&lt;/span&gt;&lt;/div&gt;&lt;div style=&quot;display: flex ; justify-content: center ; text-align: center ; align-items: baseline ; line-height: 1&quot;&gt;&lt;span style=&quot;font-size: 11px&quot;&gt;&lt;span style=&quot;font-size: 16px ; color: #000000 ; font-family: &amp;#34;carlito&amp;#34;&quot;&gt;VLAN 1280: x.x.248.0/31&lt;/span&gt;&lt;/span&gt;&lt;span style=&quot;font-size: 11px&quot;&gt;&lt;span style=&quot;font-size: 16px ; color: #000000 ; font-family: &amp;#34;carlito&amp;#34;&quot;&gt;&lt;br&gt;&lt;/span&gt;&lt;/span&gt;&lt;span style=&quot;font-size: 11px&quot;&gt;&lt;span style=&quot;font-size: 16px ; color: #000000 ; font-family: &amp;#34;carlito&amp;#34;&quot;&gt;&lt;br&gt;&lt;/span&gt;&lt;/span&gt;&lt;span style=&quot;font-size: 11px&quot;&gt;&lt;span style=&quot;font-size: 16px ; color: #000000 ; font-family: &amp;#34;carlito&amp;#34;&quot;&gt;&lt;br&gt;&lt;/span&gt;&lt;/span&gt;&lt;span style=&quot;font-size: 11px&quot;&gt;&lt;span style=&quot;font-size: 16px ; color: #000000 ; font-family: &amp;#34;carlito&amp;#34;&quot;&gt;&lt;br&gt;&lt;/span&gt;&lt;/span&gt;&lt;span style=&quot;font-size: 11px&quot;&gt;&lt;span style=&quot;font-size: 16px ; color: #000000 ; font-family: &amp;#34;carlito&amp;#34;&quot;&gt;&lt;br&gt;&lt;/span&gt;&lt;/span&gt;&lt;span style=&quot;font-size: 11px&quot;&gt;&lt;br&gt;&lt;/span&gt;&lt;font face=&quot;carlito&quot;&gt;&lt;span style=&quot;font-size: 16px&quot;&gt;&lt;br&gt;&lt;/span&gt;&lt;/font&gt;&lt;font face=&quot;carlito&quot;&gt;&lt;span style=&quot;font-size: 16px&quot;&gt;&lt;br&gt;&lt;/span&gt;&lt;/font&gt;&lt;font face=&quot;carlito&quot;&gt;&lt;span style=&quot;font-size: 16px&quot;&gt;&lt;br&gt;&lt;/span&gt;&lt;/font&gt;&lt;font face=&quot;carlito&quot;&gt;&lt;span style=&quot;font-size: 16px&quot;&gt;&lt;br&gt;&lt;/span&gt;&lt;/font&gt;&lt;font face=&quot;carlito&quot;&gt;&lt;span style=&quot;font-size: 16px&quot;&gt;&lt;br&gt;&lt;/span&gt;&lt;/font&gt;&lt;font face=&quot;carlito&quot;&gt;&lt;br&gt;&lt;/font&gt;&lt;font face=&quot;carlito&quot;&gt;&lt;br&gt;&lt;/font&gt;&lt;font face=&quot;carlito&quot;&gt;&lt;br&gt;&lt;/font&gt;&lt;font face=&quot;carlito&quot;&gt;&lt;br&gt;&lt;/font&gt;&lt;/div&gt;" style="strokeColor=none;fillColor=none;overflow=visible;html=1;fontSize=11;fontSize=11;spacing=0;strokeOpacity=0;fillOpacity=0;fontSize=11;verticalAlign=top;horizontal=1;" parent="eXOwNscXQuwSidRjr7bC-1" vertex="1">
          <mxGeometry x="260" y="70" width="360" height="120" as="geometry">
            <mxPoint x="-21.38" y="-26.51" as="offset" />
          </mxGeometry>
        </mxCell>
      </root>
    </mxGraphModel>
  </diagram>
</mxfile>
